<?xml version="1.0" encoding="UTF-8"?>
<svg version="1.1" xmlns="http://www.w3.org/2000/svg" width="52" height="52">
<path d="M0 0 C1.43158447 -0.00945648 1.43158447 -0.00945648 2.89208984 -0.019104 C3.92543457 -0.01505554 4.9587793 -0.01100708 6.0234375 -0.00683594 C7.08127441 -0.00874939 8.13911133 -0.01066284 9.22900391 -0.01263428 C11.46842689 -0.01399696 13.70785776 -0.01029476 15.94726562 -0.00195312 C19.38429427 0.00874504 22.8208002 -0.00184581 26.2578125 -0.01464844 C28.42968866 -0.01332686 30.60156449 -0.0107645 32.7734375 -0.00683594 C33.80678223 -0.0108844 34.84012695 -0.01493286 35.90478516 -0.019104 C36.8591748 -0.01279968 37.81356445 -0.00649536 38.796875 0 C39.63911621 0.00159119 40.48135742 0.00318237 41.34912109 0.00482178 C43.3984375 0.25878906 43.3984375 0.25878906 45.3984375 2.25878906 C45.65722656 5.39160156 45.65722656 5.39160156 45.6640625 9.38378906 C45.66693268 10.43783936 45.66693268 10.43783936 45.66986084 11.51318359 C45.67122225 12.9993526 45.66752882 14.48553351 45.65917969 15.97167969 C45.64847904 18.24994552 45.65907589 20.52742283 45.671875 22.80566406 C45.6705534 24.24837414 45.66799099 25.69108373 45.6640625 27.13378906 C45.66180664 28.45121094 45.65955078 29.76863281 45.65722656 31.12597656 C45.3984375 34.25878906 45.3984375 34.25878906 43.3984375 36.25878906 C41.34912109 36.51275635 41.34912109 36.51275635 38.796875 36.51757812 C37.84248535 36.52388245 36.8880957 36.53018677 35.90478516 36.53668213 C34.87144043 36.53263367 33.8380957 36.52858521 32.7734375 36.52441406 C31.71560059 36.52632751 30.65776367 36.52824097 29.56787109 36.5302124 C27.32844811 36.53157508 25.08901724 36.52787288 22.84960938 36.51953125 C19.41258073 36.50883308 15.9760748 36.51942394 12.5390625 36.53222656 C10.36718634 36.53090498 8.19531051 36.52834262 6.0234375 36.52441406 C4.99009277 36.52846252 3.95674805 36.53251099 2.89208984 36.53668213 C1.9377002 36.53037781 0.98331055 36.52407349 0 36.51757812 C-0.84224121 36.51598694 -1.68448242 36.51439575 -2.55224609 36.51275635 C-4.6015625 36.25878906 -4.6015625 36.25878906 -6.6015625 34.25878906 C-6.86035156 31.12597656 -6.86035156 31.12597656 -6.8671875 27.13378906 C-6.86910095 26.43108887 -6.8710144 25.72838867 -6.87298584 25.00439453 C-6.87434725 23.51822553 -6.87065382 22.03204461 -6.86230469 20.54589844 C-6.85160404 18.26763261 -6.86220089 15.99015529 -6.875 13.71191406 C-6.8736784 12.26920398 -6.87111599 10.8264944 -6.8671875 9.38378906 C-6.86493164 8.06636719 -6.86267578 6.74894531 -6.86035156 5.39160156 C-6.4450766 0.36442391 -4.56339336 0.0086213 0 0 Z M6.3984375 13.25878906 C7.7184375 14.90878906 9.0384375 16.55878906 10.3984375 18.25878906 C9.0784375 19.90878906 7.7584375 21.55878906 6.3984375 23.25878906 C7.1409375 22.92878906 7.8834375 22.59878906 8.6484375 22.25878906 C11.3984375 21.25878906 11.3984375 21.25878906 15.3984375 21.25878906 C16.2234375 21.65066406 17.0484375 22.04253906 17.8984375 22.44628906 C18.7234375 22.71441406 19.5484375 22.98253906 20.3984375 23.25878906 C21.0584375 22.76378906 21.7184375 22.26878906 22.3984375 21.75878906 C23.0584375 21.26378906 23.7184375 20.76878906 24.3984375 20.25878906 C26.9609375 21.07128906 26.9609375 21.07128906 29.3984375 22.25878906 C30.3884375 22.25878906 31.3784375 22.25878906 32.3984375 22.25878906 C31.0784375 20.60878906 29.7584375 18.95878906 28.3984375 17.25878906 C29.7184375 15.93878906 31.0384375 14.61878906 32.3984375 13.25878906 C29.59968008 14.32890219 27.06643471 15.44951407 24.4609375 16.94628906 C20.74190151 18.54016163 19.24178336 18.43532351 15.3984375 17.25878906 C13.00444396 16.01411318 10.71805394 14.64163733 8.3984375 13.25878906 C7.7384375 13.25878906 7.0784375 13.25878906 6.3984375 13.25878906 Z " fill="#FFFFFF" transform="translate(6.6015625,7.7412109375)"/>
</svg>
